<svg viewBox="0 0 534 207" fill="none" xmlns="http://www.w3.org/2000/svg"><g clip-path="url(#a)"><mask id="b" style="mask-type:luminance" maskUnits="userSpaceOnUse" x="0" y="0" width="534" height="207"><path d="M534 0H0v207h534V0z" fill="#fff"/></mask><g mask="url(#b)"><mask id="c" style="mask-type:luminance" maskUnits="userSpaceOnUse" x="0" y="0" width="534" height="207"><path d="M534 0H0v207h534V0z" fill="#fff"/></mask><g mask="url(#c)"><path d="M529.5 151.2s-43.8-30.7-60.8-36.7c-8-2.6-43.4-20.5-99 0 0 0-27.4 10.7-65.6 20.4l-5.2 3.2c.1 33.1.1 32.8 1.6 43.9 3.1 11.3 7.4 27.9 40.7 18.2 33.3-9.6 66.7-26.8 108.4-12.9s70.1 18 79.9 14.9c0 0-21.5-19.2-28.6-34.2 0 .1 23.8-6.9 28.6-16.8z" fill="#E42D40" stroke="#000" stroke-width="6" stroke-miterlimit="10"/><path d="M354.1 144.6s-1.5-4.7 5.9-11.8c7.4-7.1 15-3.4 16.4-.7 1.5 2.7 4.1 8.3-1.4 20.8-2.5 5.5-4 8-7.5 13.9-2.8 5.8 5.1-2.6 14.2-2.6s6.5 8.1 3.9 8.2c-23.2 4.7-26.6 12.3-29.5 7-2.9-5.2-.1-10.5 1.8-13.8 2-3.3 16.4-22.9 9.8-26.3-2.1-1.2-4.1 1.1-5.7 3.4-1.3 2-1.8 3.8-3.8 5-1.9.3-3.4-1.1-4.1-3.1zM428.125 133.906s-1.5-4.7 5.9-11.8c7.4-7.1 15-3.4 16.4-.7 1.5 2.7 4.1 8.3-1.4 20.8-2.5 5.5-5.525 10.394-9.025 16.294-1.725 2.907 10.5 4.25 14 6s-1 9-3.575 8c-2.576-1-12.925-5-20.3-3.794-5.876.962-.1-10.5 1.8-13.8 2-3.3 16.4-22.9 9.8-26.3-2.1-1.2-4.1 1.1-5.7 3.4-1.3 2-1.8 3.8-3.8 5-1.9.3-3.4-1.1-4.1-3.1zM415.5 129c2.5 8 4.5 19 1.5 30.8s-18.8 10.7-22.9 6c-4.2-4.7-7.8-20.6-5.6-32.9 2.3-12.4 11.3-13.1 13.6-13.7 5.9-.3 10.984 2.068 13.4 9.8zm-13.2-.8c-6.2 1.1-5.7 10.2-5.1 16 1.5 10.5 3.3 14.9 4.8 16.6 2 1.8 3.6 1.6 5.8-1 1.1-1.6 1.7-4.4 2-8.1.3-3.7.1-7.1.1-7.1s-.2-17.3-7.6-16.4z" fill="#F1F2F2" stroke="#F1F2F2" stroke-width=".25" stroke-miterlimit="10"/><path d="M301.2 182.6s.7-9.7 16.3-14.6c18.9-6.3 25.2-5.5 26.5-13.4 1.3-7.9 2.7-66.6 1.4-70.6-1.4-4-11.1 16.1-33.4 23.7 0 0-12.6.6-12.9 15.3-.3 12.7-.1 50.8.8 55.8.7 3.4 1.3 3.8 1.3 3.8z" fill="#E42D40" stroke="#000" stroke-width="6" stroke-miterlimit="10"/><path d="M.4 37.6s107-36.5 188.7-34.5C244.4 6.5 289 21 315.2 35.6c4.4 2.4 24.4 13.5 29 22.2 3.6 4.1 1.1 83.7.1 90.6-.1 4.5.1 3.1-1.1.4-7.1-13.9-47.5-27.3-68-33.5-20.8-6-51-14.4-101.6-11.4C121 107 72.2 117.5 39.9 124.3c-19.9 4.2-38 5.7-38 5.7" fill="#E42D40"/><path d="M.4 37.6s107-36.5 188.7-34.5C244.4 6.5 289 21 315.2 35.6c4.4 2.4 24.4 13.5 29 22.2 3.6 4.1 1.1 83.7.1 90.6-.1 4.5.1 3.1-1.1.4-7.1-13.9-47.5-27.3-68-33.5-20.8-6-51-14.4-101.6-11.4C121 107 72.2 117.5 39.9 124.3c-19.9 4.2-38 5.7-38 5.7" stroke="#000" stroke-width="6" stroke-miterlimit="10"/><path d="M87.4 46.4c1 3 2.8 8.4 6.6 19.9 1.7 5 3.5 12.3 3.5 12.3s3.5 11.7.9 13.4c-1.6 2.2-5.4 1.1-7-.8-2.2-3.1-4-10.1-4.9-14-.4-1.6-1-3.2-1.4-3.5-1.6-.9-4.6.2-6.4.8-2.4.9-4.9 2.1-5.8 2.6-2.1 8.7.7-4.1-2.1 8.7-1.2 5.7-1.5 8.4-2 10-.6 1.9-6 8.3-9.4.5-.2-2.2.3-4.8.3-4.8s1.7-20.4 7.1-40.2c5.4-19.8 11.5-17 11.5-17 2 0 4.5.7 9.1 12.1zM72.5 67S82 65.1 83 63.5 80.1 46 78.2 45.4c-1.8-.5-4.7 7-5.7 21.6zM150.4 23.4s-5.5-3.1-7.1 1.7c-.7 5-.6 31.1-.6 35.1-.4 2.3-.7 14.3-1.2 23.6.5 1.5 1.3 2.5 2.6 2.5 6.3.5 6.4-2.7 7-4 .6-1.3 1-15.7 1.7-15.9.6-.2 4.6-2.8 5.4-3.9.7-.9 4.7 12.7 10.1 18.6 4.3 4.5 10.1 3 7.5-3.1-.7-2-1.7-4.1-2.3-5.7-1.8-4.5-7.4-14.5-7.3-14.9.1-.2 2.4-4.2 2.4-4.2s4.7-9.5 5.8-11.2c1.7-2.7 7.9-16.1 7.1-19.2-.8-3.1-1.8-4.1-4-3.7-2.2.4-2.8 1.3-5.3 6.5s-7.8 15.4-11.3 20.8c0 0-4.8 7.1-8.7 9.4 0 0 1.1-9.7 1.1-19.9-.6-11.5-2.9-12.5-2.9-12.5zM231.3 38.2s4.1-1.9-2.9-11.2c-7-9.3-16.2-4.5-16.2-4.5s-9.8 3.7-10.9 22.7c-.7 13.1-1.1 23.6.3 30.3 1.9 6 6.5 8.5 8.1 9.1 7.6 2.8 15.7.9 19.1-3.3 0 0 3.4-2.4 3.4-10.5-1.2-4.6-3.8-5.2-6.5-3.2-2.7 1.9-1.4 10.7-6.7 10-3.3-.6-4.9-2.3-5.6-4.4-1.3-3.4-1.8-12.2-1.6-19.5.1-4 .3-13.2 2-17.3.6-1.9 1.3-3.5 2.3-4.5 3.1-1.3 4.3.1 4.9 2 .4 1.4 1.7 5 2.4 5.4 2.3 1.1 5.8 1.9 7.9-1.1zM246.9 28.4c-1.8-.2-4.4 1.9-4.9 20.3-.7 24.5-2 30.6-2 30.6s-4.3 9.1 8.3 10.8c12.7 1.7 13 3.6 15 1.9 2-1.7 2.3-4.6 0-6.6s-8.9-2.2-11.2-4.5c0 0 1.5-30.9 1.5-35.6 0-3.8 1.5-9.4 0-12.6-.2-.7-2.4-3.6-6.7-4.3zM270.2 44.9c-1 10.6-1.7 40.2 1.7 46.3 2.7 4.9 6.3 7.5 9.1 9.2 7.5 3.4 14.8 2.2 18.6-7 3.3-8.3 3.7-20.3 4.5-34.5 1.5-14.3-7.5-14.5-7.5-7.5-.7 11.4-.7 38.7-8.4 42-7.7 3.3-9-12.8-9-29.2s0-19.6-.3-23.6c-.3-4.2-7.7-6.3-8.7 4.3zM329.8 66c1.2 2.4 1.8 5.6 1.3 11.1-.9 10.6-4.4 11.7-4.4 11.7 4.2 2.5 4.7 8.6.6 19.7-4.1 11.1-17.4 2-18.4 1.6-1-.4 1.1-16.6 1-38.5 0-10.7.7-15.4 1.4-17.3.7-2 2.7-.9 3.2-.8 1.3.3 2.6.8 3.9 1.5 4.2 2.1 7.1 4.9 8.9 7.2 1.3 1.6 2.1 2.9 2.5 3.8zm-10.7-3.1s-1.6 4.6-1.4 20.8c0 0 8 2.3 7.3-9.1-.7-11.4-5.9-11.7-5.9-11.7zm-1.4 26.3c-1.5-.6-.9 15.9-.9 15.9s5 4.4 5.9-3.5c.9-7.9 1.1-9.8-5-12.4zM23.5 53.5c-.4 8.5.1 23.6-.3 27.8-.4 3.9-.4 14-.3 20.8-.6 9.2 8.2 8.2 8.6 2.2.3-6 1-14.4 1-14.4s10.4-4.6 10.1-5.4c-.3-.8-1 18.4 1.1 19.2 2.1.8 8.1 1.2 8.6-6.2s1.4-21.1 1.4-22.8c0-1.7 2.3-28 .8-30.6-1.7-6.7-9.6-4.3-10 2.5-.6 3.2.1 6.8-.3 10.5-.7 6-.4 16.2-1.2 18.3 0 0-7.5 2.2-9.9 4.3 0 0 1.2-17.6.8-22.2-.3-3.4.5-6.4-1-9-.5-1-7.3-5.9-9.4 5zM131.4 41.4s3.8-5-5-12.2c-8.8-7.2-15.3-1.9-17.8 0s-6.6 15.4-6.3 39.9c0 0-.2 22.3 14.9 20.9 15.1-1.4 16.3-9.9 17.3-14 .9-4.1-1.3-6.3-3.4-6.3-2.1 0-4.1.9-5.6 5.1-1.6 4.2-6.6 10.3-11.3 4.5 0 0-3.8-9.6-1.3-28.1 2.5-18.4 7.4-19.5 11-11 0 0 4 5.4 7.5 1.2z" fill="#F1F2F2" stroke="#F1F2F2" stroke-width=".25" stroke-miterlimit="10"/></g></g><path d="M483.379 133.331c1.373.327 3.424.938 6.153 1.832 4.902 1.607 7.742 2.631 8.523 3.072 1.951 1.01 2.626 2.434 2.023 4.272-.548 1.67-1.396 2.564-2.545 2.681-.333.076-1.585-.242-3.758-.954l-2.088-.685a49.293 49.293 0 0 0-2.479-.905 164.924 164.924 0 0 0-5.319-1.837c-1.56-.511-2.459-.682-2.7-.514-.24.168-.78 1.533-1.62 4.094-1.442 4.4-2.115 6.924-2.02 7.573.133.536.478.896 1.034 1.079.78.255 1.97.954 3.57 2.095 1.617 1.086 2.939 2.136 3.963 3.15a12.944 12.944 0 0 1 2.771 3.684c.767 1.423 1.134 2.654 1.102 3.692-.014.797-.177 1.669-.487 2.616-1.059 3.23-3.306 6.225-6.74 8.986-3.415 2.704-6.929 4.297-10.541 4.778-1.426.211-2.436.281-3.029.21-.594-.072-1.614-.345-3.062-.819-2.785-.913-4.988-2.19-6.608-3.832-1.621-1.642-2.194-3.186-1.719-4.634.639-1.95 1.877-2.623 3.715-2.021.39.128 1.105.486 2.146 1.074 1.45.845 2.509 1.378 3.178 1.597 1.949.639 4.486.237 7.611-1.206 3.144-1.498 5.017-3.166 5.619-5.004.274-.835.14-1.743-.402-2.723-1.142-2.162-3.709-4.022-7.701-5.577a76.113 76.113 0 0 1-2.368-.962 8.97 8.97 0 0 1-1.701-1.02c-.521-.479-.885-.876-1.09-1.19-.206-.314-.366-.86-.481-1.638-.115-.778-.128-1.491-.038-2.141.163-.686.371-1.697.624-3.033.309-1.318.636-2.598.982-3.842l1.698-5.179 2.628-8.298 1.278-.229c.648-.096 2.215.109 4.701.616 2.505.451 4.23.832 5.177 1.142z" fill="#F1F2F2"/></g><defs><clipPath id="a"><path fill="#fff" d="M0 0h534v207H0z"/></clipPath></defs></svg>